# File created by Blade
# Date/Time:  Tue Sep 30 19:36:50 2014
#---------------------------------------------------------
:version 1.10
:name HOM
:units
  mass 1.0
  length 1.000000
  angle deg
:documentation
     Acclaim Skeleton File
:root
   axis xyz
   order TX TY TZ RX RY RZ
   position 0.000000 0.000000 0.000000
   orientation 0 0 0
:bonedata
   begin
      id 1
      name Spine_dum
      direction 0.000000 1.000000 0.000000
      length 3.241213
      axis 0.0 0.0 0.0 xyz
   end
   begin
      id 2
      name LeftUpLeg_dum
      direction 1.000000 0.000000 0.000000
      length 3.434019
      axis 0.0 0.0 0.0 xyz
   end
   begin
      id 3
      name RightUpLeg_dum
      direction -1.000000 0.000000 0.000000
      length 3.434019
      axis 0.0 0.0 0.0 xyz
   end
   begin
      id 4
      name Spine
      direction 0.000000 1.000000 0.000000
      length 0.000000
      axis 0.0 0.0 0.0 xyz
      dof rx ry rz
   end
   begin
      id 5
      name Spine_dum1
      direction 0.000000 1.000000 0.000000
      length 18.382958
      axis 0.0 0.0 0.0 xyz
   end
   begin
      id 6
      name Spine_dum2
      direction 0.000000 1.000000 0.000000
      length 12.828261
      axis 0.0 0.0 0.0 xyz
   end
   begin
      id 7
      name Spine_dum3
      direction 0.000000 1.000000 0.000000
      length 12.828261
      axis 0.0 0.0 0.0 xyz
   end
   begin
      id 8
      name Head
      direction 0.000000 1.000000 0.000000
      length 4.527550
      axis 0.0 0.0 0.0 xyz
      dof rx ry rz
   end
   begin
      id 9
      name LeftShoulder
      direction 1.000000 0.000000 0.000000
      length 7.748055
      axis 0.0 0.0 -90.0 xyz
      dof rx ry rz
   end
   begin
      id 10
      name LeftArm
      direction 1.000000 0.000000 0.000000
      length 10.635614
      axis 0.0 0.0 -90.0 xyz
      dof rx ry rz
   end
   begin
      id 11
      name LeftForeArm
      direction 1.000000 0.000000 0.000000
      length 8.346755
      axis 0.0 0.0 -90.0 xyz
      dof ry rz rx
   end
   begin
      id 12
      name LeftHand
      direction 0.000000 0.000000 0.000000
      length 0.000000
      axis 0.0 0.0 -90.0 xyz
      dof rx ry rz
   end
   begin
      id 13
      name LeftHand_dum1
      direction 0.000000 0.000000 0.000000
      length 0.000000
      axis 0.0 0.0 -90.0 xyz
   end
   begin
      id 14
      name LeftHand_dum2
      direction 1.000000 0.000000 0.000000
      length 3.937000
      axis 0.0 0.0 -90.0 xyz
   end
   begin
      id 15
      name LeftHandThumb1
      direction 0.000000 0.000000 1.000000
      length 3.937000
      axis 0.0 0.0 -90.0 xyz
      dof rx rz ry
   end
   begin
      id 16
      name RightShoulder
      direction -1.000000 0.000000 0.000000
      length 7.748055
      axis 0.0 0.0 90.0 xyz
      dof rx ry rz
   end
   begin
      id 17
      name RightArm
      direction -1.000000 0.000000 0.000000
      length 10.635614
      axis 0.0 0.0 90.0 xyz
      dof rx ry rz
   end
   begin
      id 18
      name RightForeArm
      direction -1.000000 0.000000 0.000000
      length 8.346755
      axis 0.0 0.0 90.0 xyz
      dof ry rz rx
   end
   begin
      id 19
      name RightHand
      direction 0.000000 0.000000 0.000000
      length 0.000000
      axis 0.0 0.0 90.0 xyz
      dof rx ry rz
   end
   begin
      id 20
      name RightHand_dum1
      direction 0.000000 0.000000 0.000000
      length 0.000000
      axis 0.0 0.0 90.0 xyz
   end
   begin
      id 21
      name RightHand_dum2
      direction -1.000000 0.000000 0.000000
      length 3.937000
      axis 0.0 0.0 90.0 xyz
   end
   begin
      id 22
      name RightHandThumb1
      direction 0.000000 0.000000 1.000000
      length 3.937000
      axis 0.0 0.0 90.0 xyz
      dof rx rz ry
   end
   begin
      id 23
      name LeftUpLeg
      direction 0.000000 -1.000000 0.000000
      length 15.713025
      axis 0.0 0.0 0.0 xyz
      dof rx ry rz
   end
   begin
      id 24
      name LeftLeg
      direction 0.000000 -1.000000 0.000000
      length 14.435119
      axis 0.0 0.0 0.0 xyz
      dof rx ry rz
   end
   begin
      id 25
      name LeftFoot
      direction 0.000000 -0.258819 0.965926
      length 4.938895
      axis 15.0 0.0 0.0 xyz
      dof rx ry rz
   end
   begin
      id 26
      name LeftToeBase
      direction 0.000000 0.000000 1.000000
      length 2.952750
      axis 0.0 0.0 0.0 xyz
      dof rx ry rz
   end
   begin
      id 27
      name RightUpLeg
      direction 0.000000 -1.000000 0.000000
      length 15.713025
      axis 0.0 0.0 0.0 xyz
      dof rx ry rz
   end
   begin
      id 28
      name RightLeg
      direction 0.000000 -1.000000 0.000000
      length 14.435119
      axis 0.0 0.0 0.0 xyz
      dof rx ry rz
   end
   begin
      id 29
      name RightFoot
      direction 0.000000 -0.258819 0.965926
      length 4.938895
      axis 15.0 0.0 0.0 xyz
      dof rx ry rz
   end
   begin
      id 30
      name RightToeBase
      direction 0.000000 0.000000 1.000000
      length 2.952750
      axis 0.0 0.0 0.0 xyz
      dof rx ry rz
   end
:hierarchy
   begin
      root Spine_dum LeftUpLeg_dum RightUpLeg_dum
      Spine_dum Spine
      LeftUpLeg_dum LeftUpLeg
      RightUpLeg_dum RightUpLeg
      Spine Spine_dum1 Spine_dum2 Spine_dum3
      Spine_dum1 Head
      Spine_dum2 LeftShoulder
      Spine_dum3 RightShoulder
      LeftShoulder LeftArm
      LeftArm LeftForeArm
      LeftForeArm LeftHand
      LeftHand LeftHand_dum1 LeftHand_dum2
      LeftHand_dum1 LeftHandThumb1
      RightShoulder RightArm
      RightArm RightForeArm
      RightForeArm RightHand
      RightHand RightHand_dum1 RightHand_dum2
      RightHand_dum1 RightHandThumb1
      LeftUpLeg LeftLeg
      LeftLeg LeftFoot
      LeftFoot LeftToeBase
      RightUpLeg RightLeg
      RightLeg RightFoot
      RightFoot RightToeBase
   end

# File created by Blade
# Date/Time:  Tue Sep 23 19:06:47 2014
# Frame Rate: 120.000 fps
#------------------------------------------------------
:FULLY-SPECIFIED
:DEGREES
209
root 1.797991 32.358484 -8.254016 21.723740 -5.402408 -24.600892
Spine 9.583010 24.608602 18.539793
Head -48.717555 -8.075742 5.982428
LeftShoulder -22.237764 42.805084 19.206862
LeftArm 58.380595 -20.307716 -61.488016
LeftForeArm 94.082380 -0.000000 2.919698
LeftHand -16.783277 -0.000000 64.324877
LeftHandThumb1 -26.253704 0.000000 33.147579
RightShoulder 7.861427 -37.637639 -9.307076
RightArm 68.632949 28.527213 113.992621
RightForeArm 77.344593 -0.000000 18.587917
RightHand 0.207011 -0.000000 35.460973
RightHandThumb1 -24.326973 -0.000000 -32.862282
LeftUpLeg -38.292105 8.004587 17.119042
LeftLeg 34.509259 -0.000000 -0.000000
LeftFoot -16.287499 9.449852 4.219192
LeftToeBase 3.315269 -0.000000 -0.000000
RightUpLeg -146.686246 -11.676363 34.970446
RightLeg 107.777282 -0.000000 -0.000000
RightFoot 37.845515 5.306101 21.092896
RightToeBase 37.074327 -0.000000 -0.000000
210
root 1.799443 32.347881 -8.241524 21.738063 -5.442465 -24.668356
Spine 9.501565 24.586673 18.505701
Head -48.599648 -7.873490 6.094335
LeftShoulder -22.328498 42.884490 19.172382
LeftArm 58.288869 -20.449747 -61.555967
LeftForeArm 93.852437 -0.000000 3.040376
LeftHand -16.699404 0.000000 64.290815
LeftHandThumb1 -26.253704 0.000000 33.147579
RightShoulder 7.905387 -37.716874 -9.309184
RightArm 68.866642 28.742763 114.270518
RightForeArm 76.868960 -0.000000 18.866271
RightHand 0.137053 -0.000000 35.477317
RightHandThumb1 -24.326973 -0.000000 -32.862282
LeftUpLeg -38.332516 7.969054 17.188385
LeftLeg 34.679493 -0.000000 -0.000000
LeftFoot -16.384912 9.599606 4.281488
LeftToeBase 3.354342 -0.000000 -0.000000
RightUpLeg -146.871136 -11.693406 34.968142
RightLeg 107.650880 -0.000000 -0.000000
RightFoot 37.649691 5.417475 21.053916
RightToeBase 37.393435 -0.000000 -0.000000
211
root 1.793232 32.342767 -8.240242 21.910261 -5.527958 -24.865882
Spine 9.315668 24.719452 18.519074
Head -48.518902 -7.694362 6.216228
LeftShoulder -22.401290 42.922934 19.138101
LeftArm 58.218839 -20.612715 -61.533445
LeftForeArm 94.399239 -0.000000 2.955084
LeftHand -17.172383 -0.000000 64.506214
LeftHandThumb1 -26.253704 0.000000 33.147579
RightShoulder 7.906107 -37.720104 -9.299612
RightArm 69.088707 28.986862 114.546443
RightForeArm 76.340978 -0.000000 19.096287
RightHand -0.036744 -0.000000 35.533188
RightHandThumb1 -24.326973 -0.000000 -32.862282
LeftUpLeg -38.534914 8.134952 17.349965
LeftLeg 34.907357 -0.000000 -0.000000
LeftFoot -16.419655 9.673305 4.390564
LeftToeBase 3.189802 -0.000000 -0.000000
RightUpLeg -147.123979 -11.443865 35.170310
RightLeg 107.516388 -0.000000 -0.000000
RightFoot 37.472120 5.562824 20.549834
RightToeBase 37.298117 -0.000000 -0.000000
212
root 1.809912 32.327016 -8.223090 21.910652 -5.469526 -24.848413
Spine 9.212351 24.621558 18.496978
Head -48.450943 -7.598926 6.262412
LeftShoulder -22.489056 43.063514 19.062966
LeftArm 58.210769 -20.759411 -61.615938
LeftForeArm 94.158050 -0.000000 3.058624
LeftHand -17.024848 -0.000000 64.452992
LeftHandThumb1 -26.253704 0.000000 33.147579
RightShoulder 7.846412 -37.763235 -9.350296
RightArm 69.284764 29.192235 114.728120
RightForeArm 76.035876 -0.000000 19.296598
RightHand -0.215064 -0.000000 35.493083
RightHandThumb1 -24.326973 -0.000000 -32.862282
LeftUpLeg -38.638407 7.938375 17.366510
LeftLeg 35.127863 -0.000000 -0.000000
LeftFoot -16.520504 9.775805 4.288488
LeftToeBase 3.189126 -0.000000 -0.000000
RightUpLeg -147.460803 -11.635575 35.184432
RightLeg 107.380899 -0.000000 -0.000000
RightFoot 37.658491 5.967841 20.587738
RightToeBase 37.550584 -0.000000 -0.000000
213
root 1.815840 32.317170 -8.211538 21.911494 -5.487076 -24.915019
Spine 9.171947 24.621499 18.505068
Head -48.445443 -7.492621 6.386005
LeftShoulder -22.576664 43.140756 19.032947
LeftArm 58.161443 -20.917075 -61.703038
LeftForeArm 93.781232 -0.000000 3.186246
LeftHand -16.732181 -0.000000 64.244486
LeftHandThumb1 -26.253704 0.000000 33.147579
RightShoulder 7.837890 -37.626549 -9.456383
RightArm 69.482290 29.492876 115.037655
RightForeArm 75.719491 -0.000000 19.220784
RightHand -0.317725 -0.000000 35.675465
RightHandThumb1 -24.326973 -0.000000 -32.862282
LeftUpLeg -38.706942 7.944300 17.431851
LeftLeg 35.349689 -0.000000 -0.000000
LeftFoot -16.594940 9.778240 4.265831
LeftToeBase 3.107080 -0.000000 -0.000000
RightUpLeg -147.757826 -11.612260 35.331446
RightLeg 107.226026 -0.000000 -0.000000
RightFoot 37.883252 5.854919 20.600637
RightToeBase 38.033225 -0.000000 -0.000000
214
root 1.813677 32.308618 -8.201501 21.917062 -5.556496 -25.039593
Spine 9.151134 24.711362 18.533411
Head -48.438155 -7.387579 6.547147
LeftShoulder -22.594857 43.151186 19.063534
LeftArm 58.051641 -21.015275 -61.596483
LeftForeArm 93.828871 0.000000 3.102829
LeftHand -16.768571 -0.000000 64.385504
LeftHandThumb1 -26.253704 0.000000 33.147579
RightShoulder 7.790094 -37.532686 -9.481501
RightArm 69.702135 29.791417 115.288924
RightForeArm 75.458604 -0.000000 19.242195
RightHand -0.394208 -0.000000 35.811589
RightHandThumb1 -24.326973 -0.000000 -32.862282
LeftUpLeg -38.775767 8.130010 17.508548
LeftLeg 35.610483 -0.000000 -0.000000
LeftFoot -16.706067 9.642013 4.195892
LeftToeBase 3.027703 -0.000000 -0.000000
RightUpLeg -147.973304 -11.630240 35.446051
RightLeg 107.023746 -0.000000 -0.000000
RightFoot 38.150438 6.354457 20.400923
RightToeBase 37.902375 -0.000000 -0.000000
215
root 1.816711 32.299573 -8.191160 21.900928 -5.595819 -25.102689
Spine 9.144408 24.749495 18.537523
Head -48.454371 -7.317033 6.657043
LeftShoulder -22.626933 43.196021 19.045163
LeftArm 57.971426 -21.162093 -61.509915
LeftForeArm 93.748992 -0.000000 3.085048
LeftHand -16.796932 -0.000000 64.350783
LeftHandThumb1 -26.253704 0.000000 33.147579
RightShoulder 7.733354 -37.447087 -9.514181
RightArm 69.922315 30.059605 115.483616
RightForeArm 75.458714 -0.000000 19.276099
RightHand -0.535682 -0.000000 36.001490
RightHandThumb1 -24.326973 -0.000000 -32.862282
LeftUpLeg -38.835094 8.225224 17.547243
LeftLeg 35.848678 -0.000000 -0.000000
LeftFoot -16.808778 9.524070 4.086419
LeftToeBase 2.966553 -0.000000 -0.000000
RightUpLeg -148.235233 -11.693300 35.534914
RightLeg 106.788787 -0.000000 -0.000000
RightFoot 38.407805 6.495069 20.330888
RightToeBase 38.100704 -0.000000 -0.000000
216
root 1.824418 32.288533 -8.181100 21.861917 -5.611441 -25.139344
Spine 9.153262 24.777778 18.558634
Head -48.471918 -7.316107 6.732926
LeftShoulder -22.588976 43.201197 19.063768
LeftArm 57.866806 -21.328569 -61.450968
LeftForeArm 94.023935 -0.000000 3.015338
LeftHand -16.996457 -0.000000 64.496473
LeftHandThumb1 -26.253704 0.000000 33.147579
RightShoulder 7.710867 -37.417064 -9.608691
RightArm 70.294345 30.416055 115.950162
RightForeArm 75.218649 -0.000000 19.323166
RightHand -0.642756 0.000000 36.118046
RightHandThumb1 -24.326973 -0.000000 -32.862282
LeftUpLeg -38.873503 8.251556 17.571295
LeftLeg 36.061101 -0.000000 -0.000000
LeftFoot -16.903497 9.456024 3.996258
LeftToeBase 2.886128 -0.000000 -0.000000
RightUpLeg -148.517889 -11.814699 35.600564
RightLeg 106.536388 -0.000000 -0.000000
RightFoot 38.596905 6.434462 20.410343
RightToeBase 38.444066 -0.000000 -0.000000
217
root 1.828037 32.278398 -8.171356 21.801252 -5.684277 -25.144086
Spine 9.205664 24.856574 18.512591
Head -48.539196 -7.283509 6.835975
LeftShoulder -22.587301 43.208867 19.088693
LeftArm 57.779611 -21.453828 -61.353221
LeftForeArm 93.829226 -0.000000 3.028168
LeftHand -17.006915 -0.000000 64.394715
LeftHandThumb1 -26.253704 0.000000 33.147579
RightShoulder 7.680615 -37.386833 -9.648002
RightArm 70.576741 30.755360 116.160838
RightForeArm 75.505920 -0.000000 19.406992
RightHand -0.677796 -0.000000 36.634377
RightHandThumb1 -24.326973 -0.000000 -32.862282
LeftUpLeg -38.854786 8.348503 17.539885
LeftLeg 36.234918 -0.000000 -0.000000
LeftFoot -17.012953 9.368295 3.904948
LeftToeBase 2.809002 -0.000000 -0.000000
RightUpLeg -148.775103 -11.886607 35.591799
RightLeg 106.252503 -0.000000 -0.000000
RightFoot 38.648762 6.465281 20.087296
RightToeBase 38.430329 -0.000000 -0.000000
